solid ascii
  facet normal 0.000000e+000 0.000000e+000 -1.000000e+000
    outer loop
      vertex   -1.333500e+001 3.048000e+001 2.413000e+000
      vertex   -1.333500e+001 5.334000e+001 2.413000e+000
      vertex   -6.350003e-001 3.048000e+001 2.413000e+000
    endloop
  endfacet
  facet normal 0.000000e+000 0.000000e+000 -1.000000e+000
    outer loop
      vertex   -6.350003e-001 3.048000e+001 2.413000e+000
      vertex   -1.333500e+001 5.334000e+001 2.413000e+000
      vertex   -6.350003e-001 5.334000e+001 2.413000e+000
    endloop
  endfacet
  facet normal 1.000000e+000 0.000000e+000 -0.000000e+000
    outer loop
      vertex   -6.350003e-001 3.048000e+001 2.413000e+000
      vertex   -6.350003e-001 5.334000e+001 2.413000e+000
      vertex   -6.350003e-001 3.048000e+001 3.683000e+000
    endloop
  endfacet
  facet normal 1.000000e+000 -0.000000e+000 0.000000e+000
    outer loop
      vertex   -6.350003e-001 3.048000e+001 3.683000e+000
      vertex   -6.350003e-001 5.334000e+001 2.413000e+000
      vertex   -6.350003e-001 5.334000e+001 3.683000e+000
    endloop
  endfacet
  facet normal 1.000000e+000 0.000000e+000 2.134982e-007
    outer loop
      vertex   -1.333500e+001 3.048000e+001 2.413000e+000
      vertex   -1.333500e+001 4.318000e+001 1.117600e+000
      vertex   -1.333500e+001 5.334000e+001 2.413000e+000
    endloop
  endfacet
  facet normal 1.000000e+000 -0.000000e+000 2.134982e-007
    outer loop
      vertex   -1.333500e+001 3.048000e+001 2.413000e+000
      vertex   -1.333500e+001 4.064000e+001 1.117600e+000
      vertex   -1.333500e+001 4.318000e+001 1.117600e+000
    endloop
  endfacet
  facet normal 1.000000e+000 -0.000000e+000 2.134982e-007
    outer loop
      vertex   -1.333500e+001 3.048000e+001 2.413000e+000
      vertex   -1.333500e+001 3.810000e+001 1.117600e+000
      vertex   -1.333500e+001 4.064000e+001 1.117600e+000
    endloop
  endfacet
  facet normal 1.000000e+000 -0.000000e+000 2.134982e-007
    outer loop
      vertex   -1.333500e+001 3.048000e+001 2.413000e+000
      vertex   -1.333500e+001 3.556000e+001 1.117600e+000
      vertex   -1.333500e+001 3.810000e+001 1.117600e+000
    endloop
  endfacet
  facet normal 1.000000e+000 -0.000000e+000 2.134982e-007
    outer loop
      vertex   -1.333500e+001 3.048000e+001 2.413000e+000
      vertex   -1.333500e+001 3.302000e+001 1.117600e+000
      vertex   -1.333500e+001 3.556000e+001 1.117600e+000
    endloop
  endfacet
  facet normal 1.000000e+000 -1.088841e-007 0.000000e+000
    outer loop
      vertex   -1.333500e+001 3.048000e+001 2.413000e+000
      vertex   -1.333500e+001 3.048000e+001 0.000000e+000
      vertex   -1.333500e+001 3.302000e+001 1.117600e+000
    endloop
  endfacet
  facet normal 1.000000e+000 -1.088841e-007 0.000000e+000
    outer loop
      vertex   -1.333500e+001 3.302000e+001 1.117600e+000
      vertex   -1.333500e+001 3.048000e+001 0.000000e+000
      vertex   -1.333500e+001 3.302000e+001 0.000000e+000
    endloop
  endfacet
  facet normal 1.000000e+000 0.000000e+000 -0.000000e+000
    outer loop
      vertex   -1.333500e+001 3.556000e+001 0.000000e+000
      vertex   -1.333500e+001 3.810000e+001 0.000000e+000
      vertex   -1.333500e+001 3.556000e+001 1.117600e+000
    endloop
  endfacet
  facet normal 1.000000e+000 -0.000000e+000 0.000000e+000
    outer loop
      vertex   -1.333500e+001 3.556000e+001 1.117600e+000
      vertex   -1.333500e+001 3.810000e+001 0.000000e+000
      vertex   -1.333500e+001 3.810000e+001 1.117600e+000
    endloop
  endfacet
  facet normal 1.000000e+000 0.000000e+000 -0.000000e+000
    outer loop
      vertex   -1.333500e+001 4.064000e+001 0.000000e+000
      vertex   -1.333500e+001 4.318000e+001 0.000000e+000
      vertex   -1.333500e+001 4.064000e+001 1.117600e+000
    endloop
  endfacet
  facet normal 1.000000e+000 -0.000000e+000 0.000000e+000
    outer loop
      vertex   -1.333500e+001 4.064000e+001 1.117600e+000
      vertex   -1.333500e+001 4.318000e+001 0.000000e+000
      vertex   -1.333500e+001 4.318000e+001 1.117600e+000
    endloop
  endfacet
  facet normal 1.000000e+000 -0.000000e+000 2.134982e-007
    outer loop
      vertex   -1.333500e+001 4.318000e+001 1.117600e+000
      vertex   -1.333500e+001 4.572000e+001 1.117600e+000
      vertex   -1.333500e+001 5.334000e+001 2.413000e+000
    endloop
  endfacet
  facet normal 1.000000e+000 -0.000000e+000 2.134982e-007
    outer loop
      vertex   -1.333500e+001 5.334000e+001 2.413000e+000
      vertex   -1.333500e+001 4.572000e+001 1.117600e+000
      vertex   -1.333500e+001 4.826000e+001 1.117600e+000
    endloop
  endfacet
  facet normal 1.000000e+000 0.000000e+000 2.134982e-007
    outer loop
      vertex   -1.333500e+001 5.080000e+001 1.117600e+000
      vertex   -1.333500e+001 5.334000e+001 2.413000e+000
      vertex   -1.333500e+001 4.826000e+001 1.117600e+000
    endloop
  endfacet
  facet normal 1.000000e+000 1.088841e-007 -0.000000e+000
    outer loop
      vertex   -1.333500e+001 5.080000e+001 1.117600e+000
      vertex   -1.333500e+001 5.334000e+001 0.000000e+000
      vertex   -1.333500e+001 5.334000e+001 2.413000e+000
    endloop
  endfacet
  facet normal 1.000000e+000 1.088841e-007 0.000000e+000
    outer loop
      vertex   -1.333500e+001 5.080000e+001 1.117600e+000
      vertex   -1.333500e+001 5.080000e+001 0.000000e+000
      vertex   -1.333500e+001 5.334000e+001 0.000000e+000
    endloop
  endfacet
  facet normal 1.000000e+000 0.000000e+000 -0.000000e+000
    outer loop
      vertex   -1.333500e+001 4.572000e+001 0.000000e+000
      vertex   -1.333500e+001 4.826000e+001 0.000000e+000
      vertex   -1.333500e+001 4.572000e+001 1.117600e+000
    endloop
  endfacet
  facet normal 1.000000e+000 -0.000000e+000 0.000000e+000
    outer loop
      vertex   -1.333500e+001 4.572000e+001 1.117600e+000
      vertex   -1.333500e+001 4.826000e+001 0.000000e+000
      vertex   -1.333500e+001 4.826000e+001 1.117600e+000
    endloop
  endfacet
  facet normal 1.000000e+000 0.000000e+000 -0.000000e+000
    outer loop
      vertex   -3.810000e-001 3.302000e+001 0.000000e+000
      vertex   -3.810000e-001 3.556000e+001 0.000000e+000
      vertex   -3.810000e-001 3.302000e+001 1.117600e+000
    endloop
  endfacet
  facet normal 1.000000e+000 -0.000000e+000 0.000000e+000
    outer loop
      vertex   -3.810000e-001 3.302000e+001 1.117600e+000
      vertex   -3.810000e-001 3.556000e+001 0.000000e+000
      vertex   -3.810000e-001 3.556000e+001 1.117600e+000
    endloop
  endfacet
  facet normal -0.000000e+000 -1.000000e+000 0.000000e+000
    outer loop
      vertex   -3.810000e-001 3.302000e+001 0.000000e+000
      vertex   -3.810000e-001 3.302000e+001 1.117600e+000
      vertex   -6.350003e-001 3.302000e+001 0.000000e+000
    endloop
  endfacet
  facet normal 0.000000e+000 -1.000000e+000 0.000000e+000
    outer loop
      vertex   -6.350003e-001 3.302000e+001 0.000000e+000
      vertex   -3.810000e-001 3.302000e+001 1.117600e+000
      vertex   -1.333500e+001 3.302000e+001 1.117600e+000
    endloop
  endfacet
  facet normal 0.000000e+000 -1.000000e+000 0.000000e+000
    outer loop
      vertex   -1.333500e+001 3.302000e+001 0.000000e+000
      vertex   -6.350003e-001 3.302000e+001 0.000000e+000
      vertex   -1.333500e+001 3.302000e+001 1.117600e+000
    endloop
  endfacet
  facet normal 0.000000e+000 1.000000e+000 -0.000000e+000
    outer loop
      vertex   -3.810000e-001 3.556000e+001 0.000000e+000
      vertex   -6.350003e-001 3.556000e+001 0.000000e+000
      vertex   -3.810000e-001 3.556000e+001 1.117600e+000
    endloop
  endfacet
  facet normal 0.000000e+000 1.000000e+000 0.000000e+000
    outer loop
      vertex   -3.810000e-001 3.556000e+001 1.117600e+000
      vertex   -6.350003e-001 3.556000e+001 0.000000e+000
      vertex   -1.333500e+001 3.556000e+001 1.117600e+000
    endloop
  endfacet
  facet normal 0.000000e+000 1.000000e+000 0.000000e+000
    outer loop
      vertex   -1.333500e+001 3.556000e+001 1.117600e+000
      vertex   -6.350003e-001 3.556000e+001 0.000000e+000
      vertex   -1.333500e+001 3.556000e+001 0.000000e+000
    endloop
  endfacet
  facet normal 0.000000e+000 0.000000e+000 1.000000e+000
    outer loop
      vertex   -3.810000e-001 3.556000e+001 1.117600e+000
      vertex   -1.333500e+001 3.556000e+001 1.117600e+000
      vertex   -3.810000e-001 3.302000e+001 1.117600e+000
    endloop
  endfacet
  facet normal 0.000000e+000 0.000000e+000 1.000000e+000
    outer loop
      vertex   -3.810000e-001 3.302000e+001 1.117600e+000
      vertex   -1.333500e+001 3.556000e+001 1.117600e+000
      vertex   -1.333500e+001 3.302000e+001 1.117600e+000
    endloop
  endfacet
  facet normal 0.000000e+000 -0.000000e+000 -1.000000e+000
    outer loop
      vertex   -6.350003e-001 3.556000e+001 0.000000e+000
      vertex   -3.810000e-001 3.556000e+001 0.000000e+000
      vertex   -6.350003e-001 3.302000e+001 0.000000e+000
    endloop
  endfacet
  facet normal 0.000000e+000 0.000000e+000 -1.000000e+000
    outer loop
      vertex   -6.350003e-001 3.302000e+001 0.000000e+000
      vertex   -3.810000e-001 3.556000e+001 0.000000e+000
      vertex   -3.810000e-001 3.302000e+001 0.000000e+000
    endloop
  endfacet
  facet normal 0.000000e+000 0.000000e+000 1.000000e+000
    outer loop
      vertex   -6.350003e-001 3.302000e+001 0.000000e+000
      vertex   -1.333500e+001 3.302000e+001 0.000000e+000
      vertex   -6.350003e-001 3.048000e+001 0.000000e+000
    endloop
  endfacet
  facet normal 0.000000e+000 0.000000e+000 1.000000e+000
    outer loop
      vertex   -6.350003e-001 3.048000e+001 0.000000e+000
      vertex   -1.333500e+001 3.302000e+001 0.000000e+000
      vertex   -1.333500e+001 3.048000e+001 0.000000e+000
    endloop
  endfacet
  facet normal 0.000000e+000 -0.000000e+000 1.000000e+000
    outer loop
      vertex   -6.350003e-001 3.556000e+001 0.000000e+000
      vertex   -6.350003e-001 3.810000e+001 0.000000e+000
      vertex   -1.333500e+001 3.556000e+001 0.000000e+000
    endloop
  endfacet
  facet normal 0.000000e+000 -0.000000e+000 1.000000e+000
    outer loop
      vertex   -1.333500e+001 3.556000e+001 0.000000e+000
      vertex   -6.350003e-001 3.810000e+001 0.000000e+000
      vertex   -1.333500e+001 3.810000e+001 0.000000e+000
    endloop
  endfacet
  facet normal 1.000000e+000 0.000000e+000 -0.000000e+000
    outer loop
      vertex   -3.810000e-001 4.826000e+001 0.000000e+000
      vertex   -3.810000e-001 5.080000e+001 0.000000e+000
      vertex   -3.810000e-001 4.826000e+001 1.117600e+000
    endloop
  endfacet
  facet normal 1.000000e+000 -0.000000e+000 0.000000e+000
    outer loop
      vertex   -3.810000e-001 4.826000e+001 1.117600e+000
      vertex   -3.810000e-001 5.080000e+001 0.000000e+000
      vertex   -3.810000e-001 5.080000e+001 1.117600e+000
    endloop
  endfacet
  facet normal 0.000000e+000 -1.000000e+000 0.000000e+000
    outer loop
      vertex   -1.333500e+001 4.826000e+001 0.000000e+000
      vertex   -6.350003e-001 4.826000e+001 0.000000e+000
      vertex   -1.333500e+001 4.826000e+001 1.117600e+000
    endloop
  endfacet
  facet normal 0.000000e+000 -1.000000e+000 0.000000e+000
    outer loop
      vertex   -1.333500e+001 4.826000e+001 1.117600e+000
      vertex   -6.350003e-001 4.826000e+001 0.000000e+000
      vertex   -3.810000e-001 4.826000e+001 1.117600e+000
    endloop
  endfacet
  facet normal 0.000000e+000 -1.000000e+000 -0.000000e+000
    outer loop
      vertex   -3.810000e-001 4.826000e+001 1.117600e+000
      vertex   -6.350003e-001 4.826000e+001 0.000000e+000
      vertex   -3.810000e-001 4.826000e+001 0.000000e+000
    endloop
  endfacet
  facet normal -0.000000e+000 1.000000e+000 0.000000e+000
    outer loop
      vertex   -1.333500e+001 5.080000e+001 0.000000e+000
      vertex   -1.333500e+001 5.080000e+001 1.117600e+000
      vertex   -6.350003e-001 5.080000e+001 0.000000e+000
    endloop
  endfacet
  facet normal 0.000000e+000 1.000000e+000 -0.000000e+000
    outer loop
      vertex   -6.350003e-001 5.080000e+001 0.000000e+000
      vertex   -1.333500e+001 5.080000e+001 1.117600e+000
      vertex   -3.810000e-001 5.080000e+001 1.117600e+000
    endloop
  endfacet
  facet normal 0.000000e+000 1.000000e+000 -0.000000e+000
    outer loop
      vertex   -3.810000e-001 5.080000e+001 0.000000e+000
      vertex   -6.350003e-001 5.080000e+001 0.000000e+000
      vertex   -3.810000e-001 5.080000e+001 1.117600e+000
    endloop
  endfacet
  facet normal 0.000000e+000 0.000000e+000 1.000000e+000
    outer loop
      vertex   -3.810000e-001 5.080000e+001 1.117600e+000
      vertex   -1.333500e+001 5.080000e+001 1.117600e+000
      vertex   -3.810000e-001 4.826000e+001 1.117600e+000
    endloop
  endfacet
  facet normal 0.000000e+000 0.000000e+000 1.000000e+000
    outer loop
      vertex   -3.810000e-001 4.826000e+001 1.117600e+000
      vertex   -1.333500e+001 5.080000e+001 1.117600e+000
      vertex   -1.333500e+001 4.826000e+001 1.117600e+000
    endloop
  endfacet
  facet normal 0.000000e+000 -0.000000e+000 -1.000000e+000
    outer loop
      vertex   -6.350003e-001 5.080000e+001 0.000000e+000
      vertex   -3.810000e-001 5.080000e+001 0.000000e+000
      vertex   -6.350003e-001 4.826000e+001 0.000000e+000
    endloop
  endfacet
  facet normal 0.000000e+000 0.000000e+000 -1.000000e+000
    outer loop
      vertex   -6.350003e-001 4.826000e+001 0.000000e+000
      vertex   -3.810000e-001 5.080000e+001 0.000000e+000
      vertex   -3.810000e-001 4.826000e+001 0.000000e+000
    endloop
  endfacet
  facet normal -0.000000e+000 0.000000e+000 1.000000e+000
    outer loop
      vertex   -1.333500e+001 4.826000e+001 0.000000e+000
      vertex   -1.333500e+001 4.572000e+001 0.000000e+000
      vertex   -6.350003e-001 4.826000e+001 0.000000e+000
    endloop
  endfacet
  facet normal -0.000000e+000 0.000000e+000 1.000000e+000
    outer loop
      vertex   -6.350003e-001 4.826000e+001 0.000000e+000
      vertex   -1.333500e+001 4.572000e+001 0.000000e+000
      vertex   -6.350003e-001 4.572000e+001 0.000000e+000
    endloop
  endfacet
  facet normal 1.000000e+000 0.000000e+000 -0.000000e+000
    outer loop
      vertex   -3.810000e-001 3.810000e+001 0.000000e+000
      vertex   -3.810000e-001 4.064000e+001 0.000000e+000
      vertex   -3.810000e-001 3.810000e+001 1.117600e+000
    endloop
  endfacet
  facet normal 1.000000e+000 -0.000000e+000 0.000000e+000
    outer loop
      vertex   -3.810000e-001 3.810000e+001 1.117600e+000
      vertex   -3.810000e-001 4.064000e+001 0.000000e+000
      vertex   -3.810000e-001 4.064000e+001 1.117600e+000
    endloop
  endfacet
  facet normal -0.000000e+000 -1.000000e+000 0.000000e+000
    outer loop
      vertex   -3.810000e-001 3.810000e+001 0.000000e+000
      vertex   -3.810000e-001 3.810000e+001 1.117600e+000
      vertex   -6.350003e-001 3.810000e+001 0.000000e+000
    endloop
  endfacet
  facet normal 0.000000e+000 -1.000000e+000 0.000000e+000
    outer loop
      vertex   -6.350003e-001 3.810000e+001 0.000000e+000
      vertex   -3.810000e-001 3.810000e+001 1.117600e+000
      vertex   -1.333500e+001 3.810000e+001 1.117600e+000
    endloop
  endfacet
  facet normal 0.000000e+000 -1.000000e+000 0.000000e+000
    outer loop
      vertex   -1.333500e+001 3.810000e+001 0.000000e+000
      vertex   -6.350003e-001 3.810000e+001 0.000000e+000
      vertex   -1.333500e+001 3.810000e+001 1.117600e+000
    endloop
  endfacet
  facet normal 0.000000e+000 1.000000e+000 -0.000000e+000
    outer loop
      vertex   -3.810000e-001 4.064000e+001 0.000000e+000
      vertex   -6.350003e-001 4.064000e+001 0.000000e+000
      vertex   -3.810000e-001 4.064000e+001 1.117600e+000
    endloop
  endfacet
  facet normal 0.000000e+000 1.000000e+000 0.000000e+000
    outer loop
      vertex   -3.810000e-001 4.064000e+001 1.117600e+000
      vertex   -6.350003e-001 4.064000e+001 0.000000e+000
      vertex   -1.333500e+001 4.064000e+001 1.117600e+000
    endloop
  endfacet
  facet normal 0.000000e+000 1.000000e+000 0.000000e+000
    outer loop
      vertex   -1.333500e+001 4.064000e+001 1.117600e+000
      vertex   -6.350003e-001 4.064000e+001 0.000000e+000
      vertex   -1.333500e+001 4.064000e+001 0.000000e+000
    endloop
  endfacet
  facet normal 0.000000e+000 0.000000e+000 1.000000e+000
    outer loop
      vertex   -3.810000e-001 4.064000e+001 1.117600e+000
      vertex   -1.333500e+001 4.064000e+001 1.117600e+000
      vertex   -3.810000e-001 3.810000e+001 1.117600e+000
    endloop
  endfacet
  facet normal 0.000000e+000 0.000000e+000 1.000000e+000
    outer loop
      vertex   -3.810000e-001 3.810000e+001 1.117600e+000
      vertex   -1.333500e+001 4.064000e+001 1.117600e+000
      vertex   -1.333500e+001 3.810000e+001 1.117600e+000
    endloop
  endfacet
  facet normal 0.000000e+000 -0.000000e+000 -1.000000e+000
    outer loop
      vertex   -6.350003e-001 4.064000e+001 0.000000e+000
      vertex   -3.810000e-001 4.064000e+001 0.000000e+000
      vertex   -6.350003e-001 3.810000e+001 0.000000e+000
    endloop
  endfacet
  facet normal 0.000000e+000 0.000000e+000 -1.000000e+000
    outer loop
      vertex   -6.350003e-001 3.810000e+001 0.000000e+000
      vertex   -3.810000e-001 4.064000e+001 0.000000e+000
      vertex   -3.810000e-001 3.810000e+001 0.000000e+000
    endloop
  endfacet
  facet normal -1.000000e+000 0.000000e+000 -0.000000e+000
    outer loop
      vertex   -1.587500e+001 3.048000e+001 3.683000e+000
      vertex   -1.587500e+001 5.334000e+001 3.683000e+000
      vertex   -1.587500e+001 3.048000e+001 -1.270000e+000
    endloop
  endfacet
  facet normal -1.000000e+000 0.000000e+000 0.000000e+000
    outer loop
      vertex   -1.587500e+001 3.048000e+001 -1.270000e+000
      vertex   -1.587500e+001 5.334000e+001 3.683000e+000
      vertex   -1.587500e+001 5.334000e+001 -1.270000e+000
    endloop
  endfacet
  facet normal -0.000000e+000 0.000000e+000 1.000000e+000
    outer loop
      vertex   -1.587500e+001 5.334000e+001 3.683000e+000
      vertex   -1.587500e+001 3.048000e+001 3.683000e+000
      vertex   -6.350003e-001 5.334000e+001 3.683000e+000
    endloop
  endfacet
  facet normal -0.000000e+000 0.000000e+000 1.000000e+000
    outer loop
      vertex   -6.350003e-001 5.334000e+001 3.683000e+000
      vertex   -1.587500e+001 3.048000e+001 3.683000e+000
      vertex   -6.350003e-001 3.048000e+001 3.683000e+000
    endloop
  endfacet
  facet normal 0.000000e+000 -0.000000e+000 1.000000e+000
    outer loop
      vertex   -6.350003e-001 4.064000e+001 0.000000e+000
      vertex   -6.350003e-001 4.318000e+001 0.000000e+000
      vertex   -1.333500e+001 4.064000e+001 0.000000e+000
    endloop
  endfacet
  facet normal 0.000000e+000 -0.000000e+000 1.000000e+000
    outer loop
      vertex   -1.333500e+001 4.064000e+001 0.000000e+000
      vertex   -6.350003e-001 4.318000e+001 0.000000e+000
      vertex   -1.333500e+001 4.318000e+001 0.000000e+000
    endloop
  endfacet
  facet normal 0.000000e+000 -0.000000e+000 1.000000e+000
    outer loop
      vertex   -6.350003e-001 5.080000e+001 0.000000e+000
      vertex   -6.350003e-001 5.334000e+001 0.000000e+000
      vertex   -1.333500e+001 5.080000e+001 0.000000e+000
    endloop
  endfacet
  facet normal 0.000000e+000 -0.000000e+000 1.000000e+000
    outer loop
      vertex   -1.333500e+001 5.080000e+001 0.000000e+000
      vertex   -6.350003e-001 5.334000e+001 0.000000e+000
      vertex   -1.333500e+001 5.334000e+001 0.000000e+000
    endloop
  endfacet
  facet normal 0.000000e+000 1.000000e+000 0.000000e+000
    outer loop
      vertex   -6.350003e-001 5.334000e+001 0.000000e+000
      vertex   -6.350003e-001 5.334000e+001 -1.270000e+000
      vertex   -1.333500e+001 5.334000e+001 0.000000e+000
    endloop
  endfacet
  facet normal 0.000000e+000 1.000000e+000 0.000000e+000
    outer loop
      vertex   -1.333500e+001 5.334000e+001 0.000000e+000
      vertex   -6.350003e-001 5.334000e+001 -1.270000e+000
      vertex   -1.587500e+001 5.334000e+001 -1.270000e+000
    endloop
  endfacet
  facet normal 0.000000e+000 1.000000e+000 0.000000e+000
    outer loop
      vertex   -1.587500e+001 5.334000e+001 3.683000e+000
      vertex   -1.333500e+001 5.334000e+001 0.000000e+000
      vertex   -1.587500e+001 5.334000e+001 -1.270000e+000
    endloop
  endfacet
  facet normal 0.000000e+000 1.000000e+000 0.000000e+000
    outer loop
      vertex   -1.587500e+001 5.334000e+001 3.683000e+000
      vertex   -1.333500e+001 5.334000e+001 2.413000e+000
      vertex   -1.333500e+001 5.334000e+001 0.000000e+000
    endloop
  endfacet
  facet normal -0.000000e+000 1.000000e+000 0.000000e+000
    outer loop
      vertex   -1.587500e+001 5.334000e+001 3.683000e+000
      vertex   -6.350003e-001 5.334000e+001 3.683000e+000
      vertex   -1.333500e+001 5.334000e+001 2.413000e+000
    endloop
  endfacet
  facet normal -0.000000e+000 1.000000e+000 0.000000e+000
    outer loop
      vertex   -1.333500e+001 5.334000e+001 2.413000e+000
      vertex   -6.350003e-001 5.334000e+001 3.683000e+000
      vertex   -6.350003e-001 5.334000e+001 2.413000e+000
    endloop
  endfacet
  facet normal -0.000000e+000 -0.000000e+000 -1.000000e+000
    outer loop
      vertex   -6.350003e-001 5.334000e+001 -1.270000e+000
      vertex   -6.350003e-001 3.048000e+001 -1.270000e+000
      vertex   -1.587500e+001 5.334000e+001 -1.270000e+000
    endloop
  endfacet
  facet normal -0.000000e+000 -0.000000e+000 -1.000000e+000
    outer loop
      vertex   -1.587500e+001 5.334000e+001 -1.270000e+000
      vertex   -6.350003e-001 3.048000e+001 -1.270000e+000
      vertex   -1.587500e+001 3.048000e+001 -1.270000e+000
    endloop
  endfacet
  facet normal -0.000000e+000 -1.000000e+000 0.000000e+000
    outer loop
      vertex   -6.350003e-001 3.048000e+001 -1.270000e+000
      vertex   -1.333500e+001 3.048000e+001 0.000000e+000
      vertex   -1.587500e+001 3.048000e+001 -1.270000e+000
    endloop
  endfacet
  facet normal 0.000000e+000 -1.000000e+000 0.000000e+000
    outer loop
      vertex   -6.350003e-001 3.048000e+001 -1.270000e+000
      vertex   -6.350003e-001 3.048000e+001 0.000000e+000
      vertex   -1.333500e+001 3.048000e+001 0.000000e+000
    endloop
  endfacet
  facet normal -0.000000e+000 -1.000000e+000 0.000000e+000
    outer loop
      vertex   -1.333500e+001 3.048000e+001 0.000000e+000
      vertex   -1.333500e+001 3.048000e+001 2.413000e+000
      vertex   -1.587500e+001 3.048000e+001 -1.270000e+000
    endloop
  endfacet
  facet normal 0.000000e+000 -1.000000e+000 0.000000e+000
    outer loop
      vertex   -1.587500e+001 3.048000e+001 -1.270000e+000
      vertex   -1.333500e+001 3.048000e+001 2.413000e+000
      vertex   -1.587500e+001 3.048000e+001 3.683000e+000
    endloop
  endfacet
  facet normal 0.000000e+000 -1.000000e+000 0.000000e+000
    outer loop
      vertex   -1.587500e+001 3.048000e+001 3.683000e+000
      vertex   -1.333500e+001 3.048000e+001 2.413000e+000
      vertex   -6.350003e-001 3.048000e+001 3.683000e+000
    endloop
  endfacet
  facet normal 0.000000e+000 -1.000000e+000 -0.000000e+000
    outer loop
      vertex   -6.350003e-001 3.048000e+001 3.683000e+000
      vertex   -1.333500e+001 3.048000e+001 2.413000e+000
      vertex   -6.350003e-001 3.048000e+001 2.413000e+000
    endloop
  endfacet
  facet normal 1.000000e+000 -0.000000e+000 0.000000e+000
    outer loop
      vertex   -6.350003e-001 3.048000e+001 0.000000e+000
      vertex   -6.350003e-001 3.048000e+001 -1.270000e+000
      vertex   -6.350003e-001 3.302000e+001 0.000000e+000
    endloop
  endfacet
  facet normal 1.000000e+000 -0.000000e+000 0.000000e+000
    outer loop
      vertex   -6.350003e-001 3.302000e+001 0.000000e+000
      vertex   -6.350003e-001 3.048000e+001 -1.270000e+000
      vertex   -6.350003e-001 3.556000e+001 0.000000e+000
    endloop
  endfacet
  facet normal 1.000000e+000 -0.000000e+000 0.000000e+000
    outer loop
      vertex   -6.350003e-001 3.556000e+001 0.000000e+000
      vertex   -6.350003e-001 3.048000e+001 -1.270000e+000
      vertex   -6.350003e-001 3.810000e+001 0.000000e+000
    endloop
  endfacet
  facet normal 1.000000e+000 -0.000000e+000 0.000000e+000
    outer loop
      vertex   -6.350003e-001 3.810000e+001 0.000000e+000
      vertex   -6.350003e-001 3.048000e+001 -1.270000e+000
      vertex   -6.350003e-001 4.064000e+001 0.000000e+000
    endloop
  endfacet
  facet normal 1.000000e+000 -0.000000e+000 0.000000e+000
    outer loop
      vertex   -6.350003e-001 4.064000e+001 0.000000e+000
      vertex   -6.350003e-001 3.048000e+001 -1.270000e+000
      vertex   -6.350003e-001 5.334000e+001 -1.270000e+000
    endloop
  endfacet
  facet normal 1.000000e+000 -0.000000e+000 -0.000000e+000
    outer loop
      vertex   -6.350003e-001 4.318000e+001 0.000000e+000
      vertex   -6.350003e-001 5.334000e+001 -1.270000e+000
      vertex   -6.350003e-001 4.572000e+001 0.000000e+000
    endloop
  endfacet
  facet normal 1.000000e+000 0.000000e+000 0.000000e+000
    outer loop
      vertex   -6.350003e-001 4.318000e+001 0.000000e+000
      vertex   -6.350003e-001 4.064000e+001 0.000000e+000
      vertex   -6.350003e-001 5.334000e+001 -1.270000e+000
    endloop
  endfacet
  facet normal 1.000000e+000 0.000000e+000 0.000000e+000
    outer loop
      vertex   -6.350003e-001 5.334000e+001 0.000000e+000
      vertex   -6.350003e-001 5.080000e+001 0.000000e+000
      vertex   -6.350003e-001 5.334000e+001 -1.270000e+000
    endloop
  endfacet
  facet normal 1.000000e+000 0.000000e+000 0.000000e+000
    outer loop
      vertex   -6.350003e-001 5.334000e+001 -1.270000e+000
      vertex   -6.350003e-001 5.080000e+001 0.000000e+000
      vertex   -6.350003e-001 4.826000e+001 0.000000e+000
    endloop
  endfacet
  facet normal 1.000000e+000 -0.000000e+000 -0.000000e+000
    outer loop
      vertex   -6.350003e-001 4.572000e+001 0.000000e+000
      vertex   -6.350003e-001 5.334000e+001 -1.270000e+000
      vertex   -6.350003e-001 4.826000e+001 0.000000e+000
    endloop
  endfacet
  facet normal 1.000000e+000 0.000000e+000 -0.000000e+000
    outer loop
      vertex   -3.810000e-001 4.318000e+001 0.000000e+000
      vertex   -3.810000e-001 4.572000e+001 0.000000e+000
      vertex   -3.810000e-001 4.318000e+001 1.117600e+000
    endloop
  endfacet
  facet normal 1.000000e+000 -0.000000e+000 0.000000e+000
    outer loop
      vertex   -3.810000e-001 4.318000e+001 1.117600e+000
      vertex   -3.810000e-001 4.572000e+001 0.000000e+000
      vertex   -3.810000e-001 4.572000e+001 1.117600e+000
    endloop
  endfacet
  facet normal -0.000000e+000 -1.000000e+000 0.000000e+000
    outer loop
      vertex   -3.810000e-001 4.318000e+001 0.000000e+000
      vertex   -3.810000e-001 4.318000e+001 1.117600e+000
      vertex   -6.350003e-001 4.318000e+001 0.000000e+000
    endloop
  endfacet
  facet normal 0.000000e+000 -1.000000e+000 0.000000e+000
    outer loop
      vertex   -6.350003e-001 4.318000e+001 0.000000e+000
      vertex   -3.810000e-001 4.318000e+001 1.117600e+000
      vertex   -1.333500e+001 4.318000e+001 1.117600e+000
    endloop
  endfacet
  facet normal 0.000000e+000 -1.000000e+000 0.000000e+000
    outer loop
      vertex   -1.333500e+001 4.318000e+001 0.000000e+000
      vertex   -6.350003e-001 4.318000e+001 0.000000e+000
      vertex   -1.333500e+001 4.318000e+001 1.117600e+000
    endloop
  endfacet
  facet normal 0.000000e+000 1.000000e+000 -0.000000e+000
    outer loop
      vertex   -3.810000e-001 4.572000e+001 0.000000e+000
      vertex   -6.350003e-001 4.572000e+001 0.000000e+000
      vertex   -3.810000e-001 4.572000e+001 1.117600e+000
    endloop
  endfacet
  facet normal 0.000000e+000 1.000000e+000 0.000000e+000
    outer loop
      vertex   -3.810000e-001 4.572000e+001 1.117600e+000
      vertex   -6.350003e-001 4.572000e+001 0.000000e+000
      vertex   -1.333500e+001 4.572000e+001 1.117600e+000
    endloop
  endfacet
  facet normal 0.000000e+000 1.000000e+000 0.000000e+000
    outer loop
      vertex   -1.333500e+001 4.572000e+001 1.117600e+000
      vertex   -6.350003e-001 4.572000e+001 0.000000e+000
      vertex   -1.333500e+001 4.572000e+001 0.000000e+000
    endloop
  endfacet
  facet normal 0.000000e+000 0.000000e+000 1.000000e+000
    outer loop
      vertex   -3.810000e-001 4.572000e+001 1.117600e+000
      vertex   -1.333500e+001 4.572000e+001 1.117600e+000
      vertex   -3.810000e-001 4.318000e+001 1.117600e+000
    endloop
  endfacet
  facet normal 0.000000e+000 0.000000e+000 1.000000e+000
    outer loop
      vertex   -3.810000e-001 4.318000e+001 1.117600e+000
      vertex   -1.333500e+001 4.572000e+001 1.117600e+000
      vertex   -1.333500e+001 4.318000e+001 1.117600e+000
    endloop
  endfacet
  facet normal 0.000000e+000 -0.000000e+000 -1.000000e+000
    outer loop
      vertex   -6.350003e-001 4.572000e+001 0.000000e+000
      vertex   -3.810000e-001 4.572000e+001 0.000000e+000
      vertex   -6.350003e-001 4.318000e+001 0.000000e+000
    endloop
  endfacet
  facet normal 0.000000e+000 0.000000e+000 -1.000000e+000
    outer loop
      vertex   -6.350003e-001 4.318000e+001 0.000000e+000
      vertex   -3.810000e-001 4.572000e+001 0.000000e+000
      vertex   -3.810000e-001 4.318000e+001 0.000000e+000
    endloop
  endfacet
endsolid
